<svg xmlns="http://www.w3.org/2000/svg" width="15.151" height="16.055" viewBox="0 0 15.151 16.055">
  <path id="Path_13320" data-name="Path 13320" d="M21.369,14.741a4.965,4.965,0,0,1-6.756-.025,4.419,4.419,0,0,1-.025-6.438h0L21.37,1.812,22.218,1a3.724,3.724,0,0,1,5.087,0,3.316,3.316,0,0,1,0,4.849l-7.478,7.052,0,0a2.445,2.445,0,0,1-3.3-.023A2.148,2.148,0,0,1,16.5,9.751l0,0,.833-.789,4.163-3.946.832.79-5,4.735a1.075,1.075,0,0,0,0,1.578,1.224,1.224,0,0,0,1.665,0l7.462-7.072h0l.028-.023a2.21,2.21,0,0,0,0-3.233,2.483,2.483,0,0,0-3.391,0l-.025.027h0l-.848.808L15.434,9.085a3.315,3.315,0,0,0,0,4.848,3.723,3.723,0,0,0,5.087,0l5.936-5.656.848-.808.848.808-.848.808L21.37,14.742Z" transform="translate(-13.208)" fill="#1c251c"/>
</svg>
