<svg xmlns="http://www.w3.org/2000/svg" width="17.105" height="17.3" viewBox="0 0 17.105 17.3">
  <path id="Path_2142" data-name="Path 2142" d="M6.9,5.8,3.46,2.273,2.251,3.513l15.4,15.778,1.209-1.239-1.728-1.771A8.631,8.631,0,0,0,13.974,2.893V4.646a7.165,7.165,0,0,1,3.42,6.136,7.242,7.242,0,0,1-1.429,4.307l-1.1-1.127a7.01,7.01,0,0,0,.819-3.18A6.42,6.42,0,0,0,13.974,6.4v6.65L12.264,11.3V2.132ZM3.711,15.165H6.017l6.246,4.267V16.147L2.943,6.595A1.754,1.754,0,0,0,2,8.152v5.259A1.734,1.734,0,0,0,3.711,15.165Z" transform="translate(-2 -2.132)" fill="#1c251c"/>
</svg>
