<svg xmlns="http://www.w3.org/2000/svg" width="24.489" height="24.504" viewBox="0 0 24.489 24.504">
  <path id="Icon_ionic-ios-call" data-name="Icon ionic-ios-call" d="M16.544,13.7a13.675,13.675,0,0,0-2.986-2.034c-.9-.432-1.231-.416-1.883.076-.542.411-.9.79-1.508.663a8.442,8.442,0,0,1-2.96-2.239A8.67,8.67,0,0,1,5.044,7.1c-.118-.639.248-1,.641-1.561.476-.674.5-1.019.074-1.949A13.963,13.963,0,0,0,3.794.5C3.147-.171,3-.02,2.63.123A6.931,6.931,0,0,0,1.545.736,3.507,3.507,0,0,0,.228,2.171c-.267.577-.584,1.648.871,4.4a23.228,23.228,0,0,0,4.074,5.691h0l0,0,0,0h0a22.632,22.632,0,0,0,5.5,4.217c2.655,1.506,3.69,1.178,4.248.9a3.424,3.424,0,0,0,1.387-1.363,7.344,7.344,0,0,0,.592-1.123C17.044,14.521,17.2,14.365,16.544,13.7Z" transform="matrix(-0.719, 0.695, -0.695, -0.719, 24.489, 12.676)" fill="#000"/>
</svg>
