<svg xmlns="http://www.w3.org/2000/svg" width="30" height="30" viewBox="0 0 30 30">
  <g id="Group_3757" data-name="Group 3757" transform="translate(1 1)">
    <path id="Icon_feather-message-circle" data-name="Icon feather-message-circle" d="M32.5,17.722a13.036,13.036,0,0,1-1.4,5.911,13.222,13.222,0,0,1-11.822,7.311,13.036,13.036,0,0,1-5.911-1.4L4.5,32.5l2.956-8.867a13.036,13.036,0,0,1-1.4-5.911A13.222,13.222,0,0,1,13.367,5.9a13.036,13.036,0,0,1,5.911-1.4h.778A13.191,13.191,0,0,1,32.5,16.944Z" transform="translate(-4.5 -4.5)" fill="none" stroke="#000" stroke-linecap="round" stroke-linejoin="round" stroke-width="2"/>
    <path id="Path_12169" data-name="Path 12169" d="M15.759,13.879A1.879,1.879,0,1,1,13.879,12,1.879,1.879,0,0,1,15.759,13.879Z" transform="translate(-3.253 -0.306)" fill="#000"/>
    <path id="Path_12170" data-name="Path 12170" d="M23.259,13.879A1.879,1.879,0,1,1,21.379,12,1.879,1.879,0,0,1,23.259,13.879Z" transform="translate(-2.533 -0.306)" fill="#000"/>
  </g>
</svg>
