<svg xmlns="http://www.w3.org/2000/svg" width="15.447" height="23.799" viewBox="0 0 15.447 23.799">
  <path id="Path_98" data-name="Path 98" d="M967.524,44.553V48.09a7.517,7.517,0,0,1-5.209,7.411v2.678h1.248v1.612h-5.71V58.179H959.1V55.5a7.519,7.519,0,0,1-5.2-7.408v-3.53c-.392-.315-.887-.79-.915-1.209-.048-.7.915-1.289.915-1.289h1.344v6.029c0,3.375,2.453,6.122,5.468,6.122s5.469-2.746,5.469-6.122V42.063h1.343s.95.631.9,1.289C968.4,43.768,967.914,44.239,967.524,44.553Zm-6.817,7.394a4.088,4.088,0,0,1-3.84-4.3V40.29a3.864,3.864,0,1,1,7.68,0v7.36A4.088,4.088,0,0,1,960.706,51.948Z" transform="translate(-952.983 -35.992)" fill="#1c251c" fill-rule="evenodd"/>
</svg>
