<svg xmlns="http://www.w3.org/2000/svg" width="19.023" height="16.055" viewBox="0 0 19.023 16.055">
  <path id="_-Color" data-name="🎨-Color" d="M19.24,5a1.905,1.905,0,0,1,1.783,2.007V19.047a1.905,1.905,0,0,1-1.783,2.007H3.783A1.9,1.9,0,0,1,2,19.047V7.006A1.905,1.905,0,0,1,3.783,5Zm0,1.338H3.783a.635.635,0,0,0-.594.669V19.047a.635.635,0,0,0,.594.669H19.24a.635.635,0,0,0,.594-.669V7.006A.635.635,0,0,0,19.24,6.337ZM11.51,8.23a.563.563,0,0,1,.421.2l2.58,2.9a.73.73,0,0,1,0,.946.549.549,0,0,1-.841,0L12.1,10.513v6.642a.6.6,0,1,1-1.189,0v-6.64L9.354,12.274a.549.549,0,0,1-.841,0,.729.729,0,0,1,0-.946l2.576-2.9A.563.563,0,0,1,11.51,8.23Z" transform="translate(-2 -4.999)" fill="#1c251c"/>
</svg>
