<svg xmlns="http://www.w3.org/2000/svg" width="27.96" height="25.178" viewBox="0 0 27.96 25.178">
  <path id="video-off-2" d="M102.417,147.474,89.36,134.416,86.9,132.026l-.168-.28a4.194,4.194,0,0,0-1.4,3.076v11.184a4.194,4.194,0,0,0,4.194,4.194H102.11a4.11,4.11,0,0,0,2.321-.713Zm9.479-13.84a2.377,2.377,0,0,0-2.586.419l-3.006,2.8v-2.027a4.194,4.194,0,0,0-4.194-4.194H93.484l1.8,1.8,9.213,9.213,2.8,2.8,2.8,2.8a2.419,2.419,0,0,0,.839.154,2.349,2.349,0,0,0,.965-.21,2.237,2.237,0,0,0,1.4-2.069V135.7a2.237,2.237,0,0,0-1.4-2.069Zm-5.592,11.8-2.8-2.8-9.213-9.213-2.8-2.8-2.377-2.391a1.4,1.4,0,0,0-1.985,1.985l.755.741,2.461,2.461,13.057,13.057,2.041,2.041,4.054,4.068a1.4,1.4,0,1,0,1.985-1.985Z" transform="translate(-85.333 -127.826)" fill="#000"/>
</svg>
